name C:\Users\u0101727\Documents\MyRepositories\upper-imu-dc\Results\main_tracking\Case_31\FLX01_orientations_groundFrame.mot
datacolumns 13
datarows 18
range 2.01000000 2.18000000
endheader 
time	radius_imu_[0][0]	radius_imu_[0][1]	radius_imu_[0][2]	radius_imu_[1][0]	radius_imu_[1][1]	radius_imu_[1][2]	radius_imu_[2][0]	radius_imu_[2][1]	radius_imu_[2][2]	radius_imu_x	radius_imu_y	radius_imu_z	
          2.01000000	          0.41597448	         -0.87038066	         -0.26344401	         -0.35667151	         -0.42264041	          0.83316296	         -0.83651101	         -0.25261155	         -0.48624761	         -2.09908199	         -0.26659060	          1.12496621	
          2.02000000	          0.42437603	         -0.86439917	         -0.26966470	         -0.36005314	         -0.43434547	          0.82565474	         -0.83082292	         -0.25329446	         -0.49555544	         -2.11136062	         -0.27304482	          1.11441559	
          2.03000000	          0.43297990	         -0.85828329	         -0.27545997	         -0.36368974	         -0.44595043	          0.81783738	         -0.82477765	         -0.25392519	         -0.50523641	         -2.12418053	         -0.27906815	          1.10357751	
          2.04000000	          0.44175471	         -0.85204966	         -0.28082760	         -0.36749177	         -0.45742057	          0.80976306	         -0.81841467	         -0.25451482	         -0.51518893	         -2.13742460	         -0.28465630	          1.09248905	
          2.05000000	          0.45065604	         -0.84571783	         -0.28578049	         -0.37134459	         -0.46871736	          0.80150311	         -0.81179575	         -0.25507917	         -0.52528305	         -2.15093904	         -0.28982079	          1.08120129	
          2.06000000	          0.45961736	         -0.83931091	         -0.29036025	         -0.37509388	         -0.47979929	          0.79315649	         -0.80501954	         -0.25563614	         -0.53534447	         -2.16451468	         -0.29460328	          1.06978778	
          2.07000000	          0.46854456	         -0.83285555	         -0.29464832	         -0.37854174	         -0.49062436	          0.78485278	         -0.79823064	         -0.25620181	         -0.54514996	         -2.17788138	         -0.29908748	          1.05834912	
          2.08000000	          0.47731722	         -0.82638091	         -0.29876892	         -0.38145921	         -0.50115435	          0.77674525	         -0.79161679	         -0.25678573	         -0.55444021	         -2.19072365	         -0.30340239	          1.04701062	
          2.09000000	          0.48579920	         -0.81991642	         -0.30287984	         -0.38361534	         -0.51136003	          0.76899297	         -0.78539061	         -0.25738682	         -0.56295081	         -2.20271817	         -0.30771298	          1.03591094	
          2.10000000	          0.49385766	         -0.81348845	         -0.30715004	         -0.38481733	         -0.52122636	          0.76173402	         -0.77975652	         -0.25799152	         -0.57045608	         -2.21358758	         -0.31219686	          1.02518263	
          2.11000000	          0.50138737	         -0.80711626	         -0.31172753	         -0.38495253	         -0.53075629	          0.75505584	         -0.77486919	         -0.25857515	         -0.57681594	         -2.22315832	         -0.31701062	          1.01492823	
          2.12000000	          0.50833389	         -0.80080864	         -0.31670519	         -0.38402118	         -0.53997184	          0.74897139	         -0.77079464	         -0.25910604	         -0.58201347	         -2.23140689	         -0.32225385	          1.00519813	
          2.13000000	          0.51470869	         -0.79456243	         -0.32209550	         -0.38214878	         -0.54891138	          0.74341013	         -0.76748764	         -0.25955125	         -0.58617051	         -2.23847869	         -0.32794212	          0.99597708	
          2.14000000	          0.52058984	         -0.78836375	         -0.32782437	         -0.37957076	         -0.55762349	          0.73822902	         -0.76479557	         -0.25988198	         -0.58953295	         -2.24466918	         -0.33399976	          0.98718501	
          2.15000000	          0.52610689	         -0.78219159	         -0.33374819	         -0.37659062	         -0.56615921	          0.73324160	         -0.76249003	         -0.26007703	         -0.59242628	         -2.25036914	         -0.34027696	          0.97869302	
          2.16000000	          0.53141496	         -0.77602205	         -0.33968796	         -0.37352367	         -0.57456534	          0.72825458	         -0.76031454	         -0.26012389	         -0.59519523	         -2.25599144	         -0.34658511	          0.97034905	
          2.17000000	          0.53666794	         -0.76983148	         -0.34546637	         -0.37064601	         -0.58288087	          0.72309849	         -0.75802972	         -0.26001805	         -0.59814845	         -2.26190513	         -0.35273571	          0.96200322	
          2.18000000	          0.54199963	         -0.76359738	         -0.35093511	         -0.36816272	         -0.59113696	          0.71764428	         -0.75544200	         -0.25976170	         -0.60152410	         -2.26839550	         -0.35856954	          0.95352498	
